Coordinates
version=1
nRows=26
nColumns=24
inDegrees=yes

Units are S.I. units (second, meters, Newtons, ...)
Angles are in degrees.

endheader
time	pelvis_tilt	pelvis_list	pelvis_rotation	pelvis_tx	pelvis_ty	pelvis_tz	hip_flexion_r	hip_adduction_r	hip_rotation_r	knee_angle_r	ankle_angle_r	subtalar_angle_r	mtp_angle_r	hip_flexion_l	hip_adduction_l	hip_rotation_l	knee_angle_l	ankle_angle_l	subtalar_angle_l	mtp_angle_l	lumbar_extension	lumbar_bending	lumbar_rotation
      4.63500000	     -9.02795815	     -9.30064834	      4.78136271	     -1.52223675	     -0.02423721	      0.45857619	     22.45449091	      9.97589777	     -7.42940571	    -17.09584291	     -5.21459942	     -4.93492841	      4.80836634	     14.89942313	    -10.86657476	      4.77097545	    -58.13419954	    -24.78960607	     -7.37292673	     23.83613584	      9.76644762	      8.29960825	     -6.28937009
      4.64000000	     -8.90951257	     -9.28400115	      4.71023376	     -1.51625839	     -0.02370288	      0.45964482	     21.82778082	     10.16199494	     -7.20135808	    -16.96707952	     -4.87227112	     -5.02838791	      4.76978656	     15.68637799	    -10.81890778	      4.81728432	    -59.13618606	    -24.78473937	     -9.48649695	     22.60967894	      9.56732480	      8.24323685	     -5.94193201
      4.64500000	     -8.79443071	     -9.23148451	      4.64193383	     -1.51030447	     -0.02311981	      0.46069366	     21.19451864	     10.30847596	     -6.95579217	    -16.82594868	     -4.55768752	     -5.14310412	      4.71792931	     16.45778081	    -10.72110995	      4.88159870	    -60.02513170	    -24.67076430	    -11.35418049	     21.47558518	      9.37208469	      8.14745799	     -5.58389592
      4.65000000	     -8.68890748	     -9.16993777	      4.56494272	     -1.50431507	     -0.02250795	      0.46175387	     20.55276622	     10.44831340	     -6.70374284	    -16.65559048	     -4.27060007	     -5.27001070	      4.65401355	     17.21131129	    -10.62172849	      4.92745065	    -60.78440925	    -24.41679257	    -12.97071927	     20.54681172	      9.19990257	      8.04078663	     -5.26138152
      4.65500000	     -8.59982801	     -8.98439665	      4.50012338	     -1.49843127	     -0.02179425	      0.46273044	     19.91601310	     10.44690621	     -6.35522697	    -16.48679918	     -3.98570532	     -5.39902188	      4.59139772	     17.94924789	    -10.34436006	      5.01422416	    -61.41492612	    -24.10049012	    -14.31256801	     19.64981435	      9.02434275	      7.80678706	     -4.90397711
      4.66000000	     -8.52122762	     -8.78305252	      4.41171076	     -1.49256856	     -0.02105012	      0.46371130	     19.28477569	     10.42772061	     -6.03123474	    -16.30628624	     -3.72148925	     -5.50769904	      4.53130861	     18.66979689	    -10.05750731	      5.07486409	    -61.92272831	    -23.64039487	    -15.35516639	     18.95032433	      8.85740310	      7.56152792	     -4.51003198
      4.66500000	     -8.46264362	     -8.52737766	      4.33928344	     -1.48675570	     -0.02025652	      0.46465637	     18.66794038	     10.33864057	     -5.72159023	    -16.11505418	     -3.47300646	     -5.61716136	      4.47561868	     19.38495179	     -9.69772098	      5.15419606	    -62.29228853	    -23.06740940	    -16.09451657	     18.52544148	      8.70835833	      7.25519965	     -4.12751488
      4.67000000	     -8.41089767	     -8.25290694	      4.21801324	     -1.48098407	     -0.01941111	      0.46562417	     18.05185847	     10.23658952	     -5.39035819	    -15.91242053	     -3.26975008	     -5.69923195	      4.40424399	     20.07458318	     -9.33666891	      5.15454344	    -62.54363432	    -22.45259063	    -16.66953942	     18.11475650	      8.55515365	      6.94010146	     -3.63957573
      4.67500000	     -8.40464523	     -7.96443957	      4.21692372	     -1.47522649	     -0.01857284	      0.46640775	     17.45755496	     10.06807481	     -5.12584541	    -15.64508762	     -3.05555468	     -5.75894266	      4.37756571	     20.81810539	     -8.89699032	      5.30876988	    -62.66002455	    -21.83689682	    -17.04458208	     18.12492932	      8.47545375	      6.59131781	     -3.36171410
      4.68000000	     -8.40408355	     -7.53049571	      4.02780251	     -1.46952464	     -0.01764039	      0.46741689	     16.89047301	      9.80034629	     -4.72227834	    -15.45829924	     -2.85295259	     -5.84074935	      4.32572186	     21.45459969	     -8.38523448	      5.19348563	    -62.60771372	    -21.08320283	    -17.18202311	     18.11464453	      8.35844163	      6.11995649	     -2.84871360
      4.68500000	     -8.43810381	     -7.14177037	      4.02260643	     -1.46384291	     -0.01674682	      0.46814013	     16.32645190	      9.51102934	     -4.43705760	    -15.17292231	     -2.66337378	     -5.90880170	      4.28631754	     22.17860936	     -7.82683773	      5.28808524	    -62.47888356	    -20.48318555	    -17.30312505	     18.20283346	      8.31646131	      5.66972490	     -2.55331436
      4.69000000	     -8.47084089	     -6.64251901	      3.76296573	     -1.45821714	     -0.01581125	      0.46923951	     15.79603133	      9.17848986	     -3.97668523	    -14.98377084	     -2.44948195	     -5.94625921	      4.25616812	     22.77408796	     -7.28265608	      5.08693179	    -62.17638928	    -19.57040300	    -16.99549906	     18.52171460	      8.21952050	      5.13958238	     -1.97271821
      4.69500000	     -8.52380889	     -6.17711493	      3.62462454	     -1.45258912	     -0.01491805	      0.47012694	     15.26301912	      8.83451395	     -3.60564210	    -14.72469627	     -2.25703131	     -5.99813847	      4.20168587	     23.41739539	     -6.71044602	      5.01961569	    -61.80324708	    -18.75742818	    -16.65752851	     18.83276463	      8.17388351	      4.62849222	     -1.52734045
      4.70000000	     -8.59486878	     -5.69985114	      3.47222204	     -1.44700916	     -0.01406137	      0.47094113	     14.76485505	      8.46391413	     -3.26189833	    -14.48395380	     -2.07548951	     -6.01756224	      4.16170663	     24.04965786	     -6.12068222	      4.93176923	    -61.32289085	    -17.94096836	    -16.30289797	     19.16241852	      8.14563442	      4.12451219	     -1.11016661
      4.70500000	     -8.67031838	     -5.23691358	      3.30968754	     -1.44141280	     -0.01326130	      0.47182581	     14.26663700	      8.11049404	     -2.90782843	    -14.22834810	     -1.87770669	     -6.01038181	      4.12003907	     24.66649647	     -5.56520279	      4.82785397	    -60.75419939	    -17.12112107	    -15.86491981	     19.50384135	      8.12852108	      3.61527383	     -0.66826369
      4.71000000	     -8.74329683	     -4.80429270	      3.12461587	     -1.43580412	     -0.01252313	      0.47264703	     13.75942098	      7.78217929	     -2.55928507	    -13.95091311	     -1.68002334	     -5.97729311	      4.06474894	     25.26100505	     -5.04823063	      4.71129860	    -60.11258983	    -16.30231706	    -15.39135169	     19.81546270	      8.11923773	      3.16351427	     -0.21367883
      4.71500000	     -8.81590663	     -4.39155992	      2.92843646	     -1.43019520	     -0.01185980	      0.47341624	     13.25722465	      7.46709004	     -2.23647413	    -13.67328895	     -1.48382761	     -5.94004193	      4.00268918	     25.83422618	     -4.55564033	      4.58243239	    -59.39482430	    -15.51122588	    -14.97172698	     20.05466304	      8.11624169	      2.74553085	      0.21048298
      4.72000000	     -8.86033151	     -4.04287703	      2.71540060	     -1.42454971	     -0.01127705	      0.47418220	     12.70379285	      7.22119415	     -1.85593657	    -13.35481682	     -1.26757414	     -5.87440158	      3.89429605	     26.37209150	     -4.14778141	      4.45613119	    -58.63938010	    -14.71276829	    -14.49533821	     20.20162921	      8.09388873	      2.39997449	      0.67322828
      4.72500000	     -8.91964183	     -3.70426382	      2.48299048	     -1.41886594	     -0.01076336	      0.47490980	     12.17273350	      6.97667081	     -1.55104317	    -13.03582686	     -1.07583160	     -5.79542216	      3.82276436	     26.90043143	     -3.76544052	      4.28563221	    -57.80170484	    -14.04974590	    -14.18837726	     20.27070242	      8.09789364	      2.07497560	      1.12167378
      4.73000000	     -9.00689114	     -3.41588891	      2.33908256	     -1.41319158	     -0.01040406	      0.47544008	     11.65777521	      6.75366899	     -1.30426341	    -12.67658087	     -0.87889381	     -5.76206356	      3.76703066	     27.47345258	     -3.37413146	      4.23529919	    -56.92956128	    -13.54893707	    -14.08333394	     20.26489308	      8.14008491	      1.79975758	      1.42100128
      4.73500000	     -9.00509772	     -3.13185963	      1.99319502	     -1.40744605	     -0.00998163	      0.47623903	     11.07128056	      6.58081372	     -0.91648667	    -12.37877726	     -0.69189102	     -5.64563986	      3.66430646	     27.87395001	     -3.13600460	      3.93047165	    -55.95457868	    -12.92457110	    -13.87429312	     20.19305675	      8.09291718	      1.56467077	      1.96567709
      4.74000000	     -9.01318464	     -2.89257909	      1.72210316	     -1.40168768	     -0.00967538	      0.47689680	     10.46294036	      6.43117241	     -0.57241114	    -12.00819816	     -0.50947012	     -5.57505144	      3.52648255	     28.29871297	     -2.89701532	      3.72835722	    -54.96328244	    -12.44885286	    -13.80607716	     19.96198009	      8.06512676	      1.36726933	      2.40847829
      4.74500000	     -9.01764550	     -2.68101700	      1.44785072	     -1.39594993	     -0.00943968	      0.47750429	      9.85832432	      6.30133849	     -0.23441286	    -11.64402342	     -0.33370587	     -5.50496297	      3.40091512	     28.70991204	     -2.69556010	      3.51634802	    -53.92509394	    -12.05761062	    -13.82301610	     19.65147923	      8.03306728	      1.21323617	      2.83249369
      4.75000000	     -9.01213578	     -2.48367602	      1.16420501	     -1.39020502	     -0.00926273	      0.47810656	      9.23895774	      6.18189506	      0.11400284	    -11.26877816	     -0.16121274	     -5.44066304	      3.27327069	     29.09251871	     -2.52518677	      3.28064993	    -52.83767587	    -11.71307632	    -13.89408858	     19.25583286	      7.99104778	      1.07418370	      3.26128224
      4.75500000	     -9.02805470	     -2.29235233	      0.90075707	     -1.38445477	     -0.00916079	      0.47866708	      8.64722340	      6.05683263	      0.42612037	    -10.89630605	      0.00086096	     -5.38958170	      3.16655702	     29.47668027	     -2.35806752	      3.06187960	    -51.68438475	    -11.40101627	    -13.98893193	     18.85576609	      7.97658433	      0.94014282	      3.63361077
      4.76000000	     -9.03474915	     -2.11102301	      0.62449982	     -1.37872520	     -0.00909686	      0.47921602	      8.04612458	      5.93637181	      0.74939648	    -10.51782642	      0.15606483	     -5.33138771	      3.06403704	     29.83065302	     -2.21904946	      2.81807898	    -50.47713643	    -11.11494095	    -14.07930697	     18.40949395	      7.94975460	      0.82211002	      4.02010607
